# xmcd CD database file
#
# Track frame offsets:
#	150
#	12136
#	26508
#	43570
#	56442
#	70252
#	83153
#	112412
#	133509
#	151395
#	164901
#	185484
#	202479
#
# Disc length: 3015 seconds
#
# Revision: 0
# Processed by: cddbd v1.5.2PL0 Copyright (c) Steve Scherf et al.
# Submitted via: CDex 1.51
#
DISCID=bb0bc50d
DTITLE=Orquesta Cubana de Musica Moderna - JazzCuba Volumen 10
DYEAR=1900
DGENRE=Jazz
TTITLE0=Que bella es Cuba
TTITLE1=La comparsa
TTITLE2=Ay Mamá Inés
TTITLE3=El manisero
TTITLE4=Las perlas de tu boca
TTITLE5=Tema para un Africano
TTITLE6=Recordando el blues
TTITLE7=Almendra
TTITLE8=El niche (Aja Bibi)
TTITLE9=Te vas a casar (pobre del pobre)
TTITLE10=El name con bacalao
TTITLE11=Guajira Guantanamera
TTITLE12=Pastilla de menta
EXTD=
EXTT0=
EXTT1=
EXTT2=
EXTT3=
EXTT4=
EXTT5=
EXTT6=
EXTT7=
EXTT8=
EXTT9=
EXTT10=
EXTT11=
EXTT12=
PLAYORDER=
